<svg xmlns="http://www.w3.org/2000/svg" xmlns:xlink="http://www.w3.org/1999/xlink" width="500" zoomAndPan="magnify" viewBox="0 0 375 374.999991" height="500" preserveAspectRatio="xMidYMid meet" version="1.0"><defs><clipPath id="d7f29d7391"><path d="M 0 30.890625 L 375 30.890625 L 375 332.390625 L 0 332.390625 Z M 0 30.890625 " clip-rule="nonzero"/></clipPath></defs><g clip-path="url(#d7f29d7391)"><path fill="#000000" d="M 221.15625 253.039062 L 221.15625 297.757812 L 153.839844 297.757812 L 153.839844 253.039062 Z M 278.449219 303.804688 L 96.550781 303.804688 C 88.242188 303.804688 81.484375 310.203125 81.484375 318.070312 C 81.484375 325.9375 88.242188 332.335938 96.550781 332.335938 L 278.449219 332.335938 C 286.757812 332.335938 293.515625 325.9375 293.515625 318.070312 C 293.515625 310.203125 286.757812 303.804688 278.449219 303.804688 Z M 359.851562 30.871094 L 15.148438 30.871094 C 6.839844 30.871094 0.0820312 37.632812 0.0820312 45.945312 L 0.0820312 231.921875 C 0.0820312 240.230469 6.839844 246.992188 15.148438 246.992188 L 300.152344 246.992188 L 287.101562 233.9375 L 16.152344 233.9375 C 14.484375 233.9375 13.128906 232.585938 13.128906 230.914062 L 13.128906 46.949219 C 13.128906 45.28125 14.484375 43.925781 16.152344 43.925781 L 358.84375 43.925781 C 360.515625 43.925781 361.867188 45.28125 361.867188 46.949219 L 361.867188 230.914062 C 361.867188 232.585938 360.515625 233.9375 358.84375 233.9375 L 334.484375 233.9375 L 347.535156 246.992188 L 359.851562 246.992188 C 368.160156 246.992188 374.917969 240.230469 374.917969 231.921875 L 374.917969 45.945312 C 374.917969 37.632812 368.160156 30.871094 359.851562 30.871094 Z M 19.175781 49.972656 L 355.824219 49.972656 L 355.824219 71.738281 L 19.175781 71.738281 Z M 68.652344 61.273438 C 68.652344 62.945312 70.007812 64.296875 71.675781 64.296875 L 77.457031 64.296875 C 79.125 64.296875 80.480469 62.945312 80.480469 61.273438 C 80.480469 59.605469 79.125 58.25 77.457031 58.25 L 71.675781 58.25 C 70.007812 58.25 68.652344 59.605469 68.652344 61.273438 Z M 48.554688 61.273438 C 48.554688 62.945312 49.910156 64.296875 51.578125 64.296875 L 57.359375 64.296875 C 59.027344 64.296875 60.378906 62.945312 60.378906 61.273438 C 60.378906 59.605469 59.027344 58.25 57.359375 58.25 L 51.578125 58.25 C 49.910156 58.25 48.554688 59.605469 48.554688 61.273438 Z M 28.457031 61.273438 C 28.457031 62.945312 29.808594 64.296875 31.476562 64.296875 L 37.257812 64.296875 C 38.925781 64.296875 40.277344 62.945312 40.277344 61.273438 C 40.277344 59.605469 38.925781 58.25 37.257812 58.25 L 31.476562 58.25 C 29.808594 58.25 28.457031 59.605469 28.457031 61.273438 Z M 286.15625 194.148438 C 284.066406 196.996094 281.738281 199.722656 279.164062 202.296875 C 276.605469 204.859375 273.878906 207.191406 271.015625 209.296875 L 279.097656 217.378906 L 294.238281 202.230469 Z M 298.515625 206.507812 L 283.375 221.65625 L 333.984375 272.285156 C 336.371094 274.671875 339.589844 276.042969 342.8125 276.042969 C 345.601562 276.042969 348.15625 275.019531 350.011719 273.167969 C 354.183594 268.992188 353.789062 261.800781 349.128906 257.136719 Z M 229.609375 216.78125 C 212.507812 216.78125 196.429688 210.117188 184.335938 198.023438 C 172.242188 185.925781 165.582031 169.839844 165.582031 152.730469 C 165.582031 135.625 172.242188 119.539062 184.335938 107.441406 C 196.429688 95.34375 212.507812 88.683594 229.613281 88.683594 C 246.714844 88.683594 262.792969 95.34375 274.886719 107.441406 C 299.851562 132.414062 299.851562 173.050781 274.886719 198.019531 C 262.792969 210.121094 246.714844 216.78125 229.609375 216.78125 Z M 267.308594 190.441406 C 288.097656 169.648438 288.09375 135.816406 267.308594 115.023438 C 257.238281 104.949219 243.851562 99.402344 229.609375 99.402344 C 215.371094 99.402344 201.984375 104.949219 191.914062 115.023438 C 171.128906 135.816406 171.128906 169.648438 191.914062 190.441406 C 201.980469 200.511719 215.371094 206.0625 229.609375 206.0625 C 243.851562 206.0625 257.238281 200.511719 267.308594 190.441406 Z M 61.082031 186.753906 C 61.082031 187.839844 60.5 188.839844 59.5625 189.378906 C 59.09375 189.644531 58.578125 189.777344 58.058594 189.777344 C 57.527344 189.777344 57 189.640625 56.527344 189.363281 L 52.136719 186.785156 L 47.746094 189.363281 C 46.808594 189.914062 45.652344 189.917969 44.710938 189.378906 C 43.773438 188.839844 43.191406 187.839844 43.191406 186.753906 L 43.191406 176.3125 L 32.394531 176.3125 L 32.394531 215.8125 L 71.878906 215.8125 L 71.878906 176.3125 L 61.082031 176.3125 Z M 50.605469 180.671875 C 51.550781 180.117188 52.722656 180.117188 53.667969 180.671875 L 55.035156 181.472656 L 55.035156 176.3125 L 49.238281 176.3125 L 49.238281 181.472656 Z M 119.019531 186.753906 C 119.019531 187.839844 118.441406 188.839844 117.5 189.378906 C 117.035156 189.644531 116.515625 189.777344 115.996094 189.777344 C 115.46875 189.777344 114.9375 189.640625 114.46875 189.363281 L 110.074219 186.785156 L 105.683594 189.363281 C 104.75 189.914062 103.59375 189.917969 102.652344 189.378906 C 101.710938 188.839844 101.128906 187.839844 101.128906 186.753906 L 101.128906 176.3125 L 90.332031 176.3125 L 90.332031 215.8125 L 129.816406 215.8125 L 129.816406 176.3125 L 119.019531 176.3125 Z M 108.546875 180.671875 C 109.492188 180.117188 110.664062 180.117188 111.605469 180.671875 L 112.976562 181.472656 L 112.976562 176.3125 L 107.175781 176.3125 L 107.175781 181.472656 Z M 61.082031 129.625 C 61.082031 130.710938 60.5 131.710938 59.5625 132.25 C 59.09375 132.515625 58.578125 132.648438 58.058594 132.648438 C 57.527344 132.648438 57 132.511719 56.527344 132.234375 L 52.136719 129.65625 L 47.746094 132.234375 C 46.808594 132.785156 45.652344 132.789062 44.710938 132.25 C 43.773438 131.710938 43.191406 130.710938 43.191406 129.625 L 43.191406 119.183594 L 32.394531 119.183594 L 32.394531 158.679688 L 71.878906 158.679688 L 71.878906 119.183594 L 61.082031 119.183594 Z M 50.605469 123.542969 C 51.550781 122.984375 52.722656 122.984375 53.667969 123.542969 L 55.035156 124.34375 L 55.035156 119.183594 L 49.238281 119.183594 L 49.238281 124.34375 Z M 119.019531 129.625 C 119.019531 130.710938 118.441406 131.710938 117.5 132.25 C 117.035156 132.515625 116.515625 132.648438 115.996094 132.648438 C 115.46875 132.648438 114.9375 132.511719 114.46875 132.234375 L 110.074219 129.65625 L 105.683594 132.234375 C 104.75 132.785156 103.59375 132.789062 102.652344 132.25 C 101.710938 131.710938 101.128906 130.710938 101.128906 129.625 L 101.128906 119.183594 L 90.332031 119.183594 L 90.332031 158.679688 L 129.816406 158.679688 L 129.816406 119.183594 L 119.019531 119.183594 Z M 108.546875 123.542969 C 109.492188 122.984375 110.664062 122.984375 111.605469 123.542969 L 112.976562 124.34375 L 112.976562 119.183594 L 107.175781 119.183594 L 107.175781 124.34375 Z M 259.449219 139.097656 L 232.636719 154.585938 L 232.636719 185.558594 L 259.449219 170.074219 Z M 212.484375 149.375 L 214.527344 150.554688 L 214.527344 145.871094 C 214.527344 145.839844 214.535156 145.808594 214.535156 145.773438 C 214.539062 145.710938 214.539062 145.644531 214.546875 145.582031 C 214.550781 145.511719 214.5625 145.445312 214.574219 145.378906 C 214.585938 145.308594 214.597656 145.242188 214.613281 145.175781 C 214.628906 145.121094 214.644531 145.0625 214.660156 145.007812 C 214.679688 144.945312 214.703125 144.878906 214.726562 144.816406 C 214.75 144.75 214.773438 144.683594 214.804688 144.621094 C 214.832031 144.5625 214.859375 144.507812 214.890625 144.453125 C 214.90625 144.421875 214.914062 144.390625 214.929688 144.363281 C 214.945312 144.332031 214.96875 144.308594 214.988281 144.28125 C 215.023438 144.226562 215.054688 144.171875 215.09375 144.121094 C 215.132812 144.066406 215.179688 144.011719 215.222656 143.957031 C 215.265625 143.902344 215.308594 143.851562 215.355469 143.800781 C 215.398438 143.757812 215.4375 143.71875 215.480469 143.679688 C 215.527344 143.632812 215.578125 143.589844 215.632812 143.546875 C 215.6875 143.5 215.742188 143.457031 215.800781 143.414062 C 215.851562 143.378906 215.90625 143.34375 215.957031 143.3125 C 215.984375 143.292969 216.007812 143.269531 216.039062 143.253906 L 244.363281 126.894531 L 242.324219 125.71875 L 212.488281 142.949219 L 212.488281 149.375 Z M 226.589844 154.585938 L 220.570312 151.109375 L 220.570312 155.792969 C 220.570312 156.871094 219.996094 157.871094 219.058594 158.410156 C 218.59375 158.679688 218.070312 158.816406 217.550781 158.816406 C 217.027344 158.816406 216.507812 158.679688 216.039062 158.410156 L 207.953125 153.742188 C 207.019531 153.203125 206.441406 152.203125 206.441406 151.121094 L 206.441406 142.949219 L 199.777344 139.101562 L 199.777344 170.074219 L 226.589844 185.558594 Z M 202.796875 133.863281 L 209.464844 137.714844 L 236.277344 122.226562 L 229.609375 118.375 Z M 229.609375 149.347656 L 256.425781 133.863281 L 250.40625 130.386719 L 223.59375 145.871094 Z M 229.609375 149.347656 " fill-opacity="1" fill-rule="nonzero"/></g></svg>