<svg xmlns="http://www.w3.org/2000/svg" xmlns:xlink="http://www.w3.org/1999/xlink" width="500" zoomAndPan="magnify" viewBox="0 0 375 374.999991" height="500" preserveAspectRatio="xMidYMid meet" version="1.0"><path fill="#000000" d="M 241.949219 258.859375 C 241.949219 254.605469 244.523438 250.109375 250.273438 246.574219 C 258.988281 241.226562 276.496094 237.296875 296.738281 237.296875 C 316.980469 237.296875 334.488281 241.226562 343.203125 246.574219 C 348.953125 250.109375 351.527344 254.605469 351.527344 258.859375 L 351.527344 353.4375 C 351.527344 357.691406 348.953125 362.191406 343.203125 365.722656 C 334.488281 371.074219 316.980469 375 296.738281 375 C 276.496094 375 258.988281 371.074219 250.273438 365.722656 C 244.523438 362.191406 241.949219 357.691406 241.949219 353.4375 Z M 339.25 258.859375 C 338.996094 258.5625 338.570312 258.089844 338.199219 257.796875 C 337.027344 256.875 335.488281 256.035156 333.664062 255.246094 C 325.34375 251.632812 311.894531 249.394531 296.738281 249.394531 C 281.582031 249.394531 268.132812 251.632812 259.8125 255.246094 C 257.988281 256.035156 256.449219 256.875 255.277344 257.796875 C 254.90625 258.089844 254.480469 258.5625 254.226562 258.859375 C 254.480469 259.152344 254.90625 259.628906 255.277344 259.921875 C 256.449219 260.84375 257.988281 261.679688 259.8125 262.472656 C 268.132812 266.085938 281.582031 268.324219 296.738281 268.324219 C 311.894531 268.324219 325.34375 266.085938 333.664062 262.472656 C 335.488281 261.679688 337.027344 260.84375 338.199219 259.921875 C 338.570312 259.628906 338.996094 259.152344 339.25 258.859375 Z M 339.429688 290.167969 L 339.429688 273.125 C 329.953125 277.4375 314.386719 280.421875 296.738281 280.421875 C 279.089844 280.421875 263.523438 277.4375 254.046875 273.125 L 254.046875 290.167969 C 254.199219 290.359375 254.785156 291.058594 255.277344 291.445312 C 256.449219 292.371094 257.988281 293.207031 259.8125 294 C 268.132812 297.613281 281.582031 299.851562 296.738281 299.851562 C 311.894531 299.851562 325.34375 297.613281 333.664062 294 C 335.488281 293.207031 337.027344 292.371094 338.199219 291.445312 C 338.691406 291.058594 339.277344 290.359375 339.429688 290.167969 Z M 339.429688 321.695312 L 339.429688 304.652344 C 329.953125 308.960938 314.386719 311.945312 296.738281 311.945312 C 279.089844 311.945312 263.523438 308.960938 254.046875 304.652344 L 254.046875 321.695312 C 254.199219 321.882812 254.785156 322.585938 255.277344 322.972656 C 256.449219 323.894531 257.988281 324.734375 259.8125 325.527344 C 268.132812 329.140625 281.582031 331.375 296.738281 331.375 C 311.894531 331.375 325.34375 329.140625 333.664062 325.527344 C 335.488281 324.734375 337.027344 323.894531 338.199219 322.972656 C 338.691406 322.585938 339.277344 321.882812 339.429688 321.695312 Z M 254.046875 336.179688 L 254.046875 353.222656 C 254.199219 353.410156 254.785156 354.113281 255.277344 354.5 C 256.449219 355.421875 257.988281 356.261719 259.8125 357.054688 C 268.132812 360.667969 281.582031 362.902344 296.738281 362.902344 C 311.894531 362.902344 325.34375 360.667969 333.664062 357.054688 C 335.488281 356.261719 337.027344 355.421875 338.199219 354.5 C 338.691406 354.113281 339.277344 353.410156 339.429688 353.222656 L 339.429688 336.179688 C 329.953125 340.488281 314.386719 343.472656 296.738281 343.472656 C 279.089844 343.472656 263.523438 340.488281 254.046875 336.179688 Z M 261.027344 342.96875 C 264.046875 342.96875 266.492188 345.414062 266.492188 348.429688 C 266.492188 351.449219 264.046875 353.894531 261.027344 353.894531 C 258.011719 353.894531 255.566406 351.449219 255.566406 348.429688 C 255.566406 345.414062 258.011719 342.96875 261.027344 342.96875 Z M 261.027344 279.710938 C 264.046875 279.710938 266.492188 282.15625 266.492188 285.175781 C 266.492188 288.195312 264.046875 290.640625 261.027344 290.640625 C 258.011719 290.640625 255.566406 288.195312 255.566406 285.175781 C 255.566406 282.15625 258.011719 279.710938 261.027344 279.710938 Z M 261.027344 311.222656 C 264.046875 311.222656 266.492188 313.667969 266.492188 316.6875 C 266.492188 319.703125 264.046875 322.152344 261.027344 322.152344 C 258.011719 322.152344 255.566406 319.703125 255.566406 316.6875 C 255.566406 313.667969 258.011719 311.222656 261.027344 311.222656 Z M 43.195312 88.199219 L 15.734375 88.199219 C 7.082031 88.199219 0 81.117188 0 72.464844 L 0 15.734375 C 0 7.082031 7.082031 0 15.734375 0 L 122.335938 0 C 130.988281 0 138.070312 7.082031 138.070312 15.734375 L 138.070312 72.464844 C 138.070312 81.117188 130.988281 88.199219 122.335938 88.199219 L 94.886719 88.199219 L 94.886719 99.054688 L 103.578125 99.054688 C 111.78125 99.054688 117.886719 105.144531 117.886719 111.695312 L 117.886719 122.074219 C 117.886719 125.417969 115.179688 128.125 111.835938 128.125 L 26.242188 128.125 C 22.902344 128.125 20.195312 125.417969 20.195312 122.074219 L 20.195312 111.695312 C 20.195312 105.144531 26.300781 99.054688 34.503906 99.054688 L 43.195312 99.054688 Z M 82.789062 88.199219 L 55.292969 88.199219 L 55.292969 99.054688 L 82.789062 99.054688 Z M 32.292969 111.921875 L 32.292969 116.027344 C 32.292969 116.027344 105.789062 116.027344 105.789062 116.027344 L 105.789062 111.921875 C 105.699219 111.835938 105.519531 111.675781 105.386719 111.597656 C 104.882812 111.300781 104.25 111.152344 103.578125 111.152344 L 34.503906 111.152344 C 33.832031 111.152344 33.199219 111.300781 32.691406 111.597656 C 32.5625 111.675781 32.382812 111.835938 32.292969 111.921875 Z M 15.734375 12.097656 C 13.734375 12.097656 12.097656 13.734375 12.097656 15.734375 L 12.097656 72.464844 C 12.097656 74.464844 13.734375 76.105469 15.734375 76.105469 L 122.335938 76.105469 C 124.335938 76.105469 125.976562 74.464844 125.976562 72.464844 L 125.976562 15.734375 C 125.976562 13.734375 124.335938 12.097656 122.335938 12.097656 Z M 75.085938 193.546875 L 75.085938 259.019531 C 75.085938 262.355469 72.375 265.066406 69.035156 265.066406 C 65.699219 265.066406 62.988281 262.355469 62.988281 259.019531 L 62.988281 145.027344 C 62.988281 141.6875 65.699219 138.976562 69.035156 138.976562 C 72.375 138.976562 75.085938 141.6875 75.085938 145.027344 L 75.085938 181.453125 L 103.851562 181.453125 C 107.191406 181.453125 109.898438 184.160156 109.898438 187.5 C 109.898438 190.839844 107.191406 193.546875 103.851562 193.546875 Z M 290.691406 193.546875 L 261.921875 193.546875 C 258.585938 193.546875 255.875 190.839844 255.875 187.5 C 255.875 184.160156 258.585938 181.453125 261.921875 181.453125 L 290.691406 181.453125 L 290.691406 122.074219 C 290.691406 118.738281 293.398438 116.027344 296.738281 116.027344 C 300.078125 116.027344 302.785156 118.738281 302.785156 122.074219 L 302.785156 214.5 C 302.785156 217.839844 300.078125 220.550781 296.738281 220.550781 C 293.398438 220.550781 290.691406 217.839844 290.691406 214.5 Z M 193.546875 319.414062 L 211.648438 319.414062 C 214.988281 319.414062 217.699219 322.121094 217.699219 325.460938 C 217.699219 328.796875 214.988281 331.507812 211.648438 331.507812 L 163.351562 331.507812 C 160.011719 331.507812 157.300781 328.796875 157.300781 325.460938 C 157.300781 322.121094 160.011719 319.414062 163.351562 319.414062 L 181.453125 319.414062 L 181.453125 269.839844 C 181.453125 266.5 184.160156 263.789062 187.5 263.789062 C 190.839844 263.789062 193.546875 266.5 193.546875 269.839844 Z M 181.453125 55.585938 L 163.351562 55.585938 C 160.011719 55.585938 157.300781 52.878906 157.300781 49.539062 C 157.300781 46.203125 160.011719 43.492188 163.351562 43.492188 L 211.648438 43.492188 C 214.988281 43.492188 217.699219 46.203125 217.699219 49.539062 C 217.699219 52.878906 214.988281 55.585938 211.648438 55.585938 L 193.546875 55.585938 L 193.546875 106.316406 C 193.546875 109.65625 190.839844 112.367188 187.5 112.367188 C 184.160156 112.367188 181.453125 109.65625 181.453125 106.316406 Z M 233.476562 43.078125 C 234.269531 19.15625 253.910156 0 278.027344 0 C 288.753906 0 298.601562 3.792969 306.292969 10.109375 C 309.570312 9.261719 313.007812 8.808594 316.550781 8.808594 C 336.261719 8.808594 352.695312 22.769531 356.53125 41.34375 C 367.554688 45.996094 375 56.914062 375 69.128906 C 375 85.707031 361.429688 99.277344 344.839844 99.277344 L 248.636719 99.277344 C 232.046875 99.277344 218.476562 85.707031 218.476562 69.128906 C 218.476562 58.054688 224.523438 48.324219 233.476562 43.078125 Z M 344.839844 87.179688 C 354.777344 87.179688 362.902344 79.054688 362.902344 69.128906 C 362.902344 60.992188 357.382812 53.824219 349.542969 51.699219 C 347.140625 51.046875 345.382812 48.988281 345.113281 46.511719 C 343.554688 32.113281 331.367188 20.90625 316.550781 20.90625 C 313.148438 20.90625 309.882812 21.496094 306.855469 22.582031 C 304.683594 23.359375 302.261719 22.835938 300.609375 21.234375 C 294.761719 15.574219 286.796875 12.097656 278.027344 12.097656 C 260.085938 12.097656 245.550781 26.640625 245.550781 44.582031 C 245.550781 45.207031 245.5625 45.832031 245.597656 46.449219 C 245.75 49.027344 244.246094 51.414062 241.855469 52.394531 C 235.265625 55.097656 230.574219 61.589844 230.574219 69.128906 C 230.574219 79.054688 238.699219 87.179688 248.636719 87.179688 Z M 187.5 122.089844 C 223.617188 122.089844 252.910156 151.382812 252.910156 187.5 C 252.910156 223.617188 223.617188 252.910156 187.5 252.910156 C 151.382812 252.910156 122.089844 223.617188 122.089844 187.5 C 122.089844 151.382812 151.382812 122.089844 187.5 122.089844 Z M 140.890625 161.605469 C 136.621094 169.273438 134.1875 178.105469 134.1875 187.5 C 134.1875 196.894531 136.621094 205.726562 140.890625 213.394531 C 143.679688 211.726562 146.636719 210.207031 149.746094 208.84375 C 147.734375 201.980469 146.679688 194.765625 146.679688 187.378906 C 146.679688 180.011719 147.742188 172.886719 149.730469 166.148438 C 146.625 164.789062 143.671875 163.269531 140.890625 161.605469 Z M 147.96875 223.265625 C 152.375 228.132812 157.667969 232.183594 163.59375 235.164062 C 159.832031 230.542969 156.640625 225.507812 154.078125 220.15625 C 151.953125 221.105469 149.914062 222.144531 147.96875 223.265625 Z M 211.425781 235.152344 C 217.34375 232.175781 222.628906 228.128906 227.03125 223.265625 C 225.089844 222.144531 223.050781 221.109375 220.929688 220.160156 C 218.371094 225.507812 215.183594 230.539062 211.425781 235.152344 Z M 234.109375 213.394531 C 238.378906 205.726562 240.8125 196.894531 240.8125 187.5 C 240.8125 178.105469 238.378906 169.273438 234.109375 161.605469 C 231.332031 163.265625 228.382812 164.785156 225.285156 166.140625 C 227.273438 172.878906 228.34375 180.007812 228.34375 187.378906 C 228.34375 194.765625 227.285156 201.984375 225.265625 208.851562 C 228.371094 210.210938 231.328125 211.730469 234.109375 213.394531 Z M 227.03125 151.734375 C 222.613281 146.855469 217.304688 142.796875 211.363281 139.816406 C 215.113281 144.40625 218.332031 149.445312 220.929688 154.839844 C 223.050781 153.890625 225.089844 152.855469 227.03125 151.734375 Z M 163.65625 139.804688 C 157.707031 142.785156 152.390625 146.847656 147.96875 151.734375 C 149.914062 152.855469 151.957031 153.894531 154.082031 154.84375 C 156.679688 149.445312 159.902344 144.402344 163.65625 139.804688 Z M 161.148438 170.214844 C 159.601562 175.675781 158.773438 181.433594 158.773438 187.378906 C 158.773438 193.359375 159.597656 199.203125 161.171875 204.78125 C 167.546875 202.992188 174.355469 201.832031 181.453125 201.410156 L 181.453125 173.589844 C 174.347656 173.167969 167.53125 172.003906 161.148438 170.214844 Z M 165.582031 216.117188 C 169.421875 223.722656 174.792969 230.535156 181.453125 236.109375 L 181.453125 213.53125 C 175.925781 213.90625 170.605469 214.789062 165.582031 216.117188 Z M 193.546875 236.121094 C 200.210938 230.542969 205.585938 223.730469 209.429688 216.121094 C 204.402344 214.789062 199.078125 213.90625 193.546875 213.53125 Z M 213.84375 204.785156 C 215.421875 199.207031 216.246094 193.359375 216.246094 187.378906 C 216.246094 181.429688 215.417969 175.671875 213.867188 170.207031 C 207.480469 172 200.660156 173.167969 193.546875 173.589844 L 193.546875 201.410156 C 200.648438 201.832031 207.464844 202.996094 213.84375 204.785156 Z M 209.433594 158.878906 C 205.527344 151.191406 200.097656 144.402344 193.546875 138.90625 L 193.546875 161.46875 C 199.078125 161.09375 204.402344 160.210938 209.433594 158.878906 Z M 181.453125 138.917969 C 174.90625 144.410156 169.480469 151.199219 165.578125 158.882812 C 170.605469 160.210938 175.925781 161.09375 181.453125 161.46875 Z M 49.996094 343.75 C 47.742188 346.214844 43.914062 346.386719 41.449219 344.136719 C 38.988281 341.882812 38.8125 338.054688 41.066406 335.589844 C 48.21875 327.761719 58.121094 322.964844 69.035156 322.964844 C 79.953125 322.964844 89.855469 327.761719 97.007812 335.59375 C 99.257812 338.054688 99.085938 341.886719 96.621094 344.136719 C 94.15625 346.390625 90.328125 346.214844 88.078125 343.75 C 83.199219 338.414062 76.480469 335.0625 69.035156 335.0625 C 61.59375 335.0625 54.875 338.410156 49.996094 343.75 Z M 112.203125 318.957031 C 114.457031 321.421875 114.285156 325.253906 111.820312 327.503906 C 109.355469 329.753906 105.527344 329.582031 103.273438 327.117188 C 94.507812 317.519531 82.414062 311.539062 69.035156 311.539062 C 55.65625 311.539062 43.566406 317.519531 34.796875 327.117188 C 32.546875 329.582031 28.71875 329.753906 26.253906 327.503906 C 23.789062 325.25 23.617188 321.421875 25.867188 318.957031 C 36.910156 306.871094 52.1875 299.441406 69.035156 299.441406 C 85.886719 299.445312 101.164062 306.871094 112.203125 318.957031 Z M 19.601562 310.484375 C 17.347656 312.949219 13.519531 313.121094 11.054688 310.871094 C 8.589844 308.617188 8.417969 304.789062 10.671875 302.324219 C 25.601562 285.984375 46.253906 275.917969 69.035156 275.921875 C 91.820312 275.921875 112.46875 285.984375 127.402344 302.324219 C 129.652344 304.789062 129.480469 308.617188 127.015625 310.871094 C 124.550781 313.121094 120.722656 312.949219 118.472656 310.484375 C 105.8125 296.632812 88.347656 288.015625 69.035156 288.015625 C 49.722656 288.015625 32.257812 296.632812 19.601562 310.484375 Z M 69.035156 349.324219 C 74.457031 349.324219 78.851562 353.71875 78.851562 359.136719 C 78.851562 364.558594 74.457031 368.953125 69.035156 368.953125 C 63.617188 368.953125 59.222656 364.558594 59.222656 359.136719 C 59.222656 353.71875 63.617188 349.324219 69.035156 349.324219 Z M 69.035156 349.324219 " fill-opacity="1" fill-rule="evenodd"/></svg>