<svg xmlns="http://www.w3.org/2000/svg" xmlns:xlink="http://www.w3.org/1999/xlink" width="500" zoomAndPan="magnify" viewBox="0 0 375 374.999991" height="500" preserveAspectRatio="xMidYMid meet" version="1.0"><path fill="#000000" d="M 331.050781 221.691406 C 319.667969 203.363281 305.046875 218.429688 292.960938 226.554688 C 278.902344 236.144531 264.546875 247.734375 249.640625 255.929688 C 245.207031 241.898438 232.78125 239.023438 219.554688 240.511719 C 205.625 240.660156 191.097656 240.917969 177.195312 241.101562 C 147.527344 238.46875 120.226562 250.472656 101.597656 273.414062 C 102.203125 273.175781 102.867188 272.398438 103.4375 272.320312 C 103.339844 273.140625 102.390625 273.980469 103.84375 273.089844 C 102.816406 274.210938 101.613281 275.222656 100.734375 276.433594 C 99.667969 275.515625 98.605469 273.800781 97.332031 273.507812 C 97.355469 273.902344 97.792969 274.253906 97.703125 274.648438 C 97.1875 274.730469 96.59375 274.183594 96.957031 275.066406 C 96.28125 274.480469 95.800781 273.679688 94.972656 273.296875 C 105.277344 293.246094 120.007812 311.65625 132.820312 330.3125 C 133.886719 331.886719 133.277344 334.050781 131.582031 334.871094 C 122.390625 341.335938 112.183594 348.398438 102.957031 354.90625 C 101.839844 355.988281 100.070312 356.757812 98.800781 355.429688 C 86.042969 338.144531 71.929688 319.027344 59.066406 301.816406 C 57.71875 300.308594 56.847656 297.875 58.984375 296.605469 C 68.316406 289.089844 77.121094 281.078125 86.464844 273.558594 C 89.347656 271.214844 92.65625 270.621094 95.882812 272.625 C 92.953125 256.378906 71.054688 274.140625 63.585938 278.46875 C 51.855469 285.753906 37.765625 295.160156 49.382812 309.839844 C 61.164062 326.410156 74.378906 343.1875 86.710938 359.34375 C 96.589844 374.9375 108 367.164062 118.851562 357.734375 C 128.371094 349.003906 151.765625 340.699219 141.179688 324.417969 C 153.757812 322.699219 163.757812 311.648438 177.140625 314.964844 C 193.519531 315.167969 210.023438 314.644531 226.410156 313.941406 C 238.78125 312.878906 257.523438 316.277344 266.210938 305.765625 C 280.941406 290.847656 298.898438 272.015625 313.449219 256.824219 C 321.96875 246.84375 337.441406 236.878906 331.050781 221.691406 Z M 320.308594 229.484375 C 320.671875 232.914062 310.625 241.292969 308.71875 243.675781 C 292.046875 260.09375 271.050781 284.394531 253.648438 299.648438 C 227.628906 302.519531 201.21875 303.160156 175.085938 305.667969 C 160.96875 304.792969 150.6875 315.265625 139.835938 322.621094 C 127.875 306.488281 115.449219 290.472656 100.859375 276.566406 C 139.890625 247.09375 147.03125 250.210938 194.191406 250.714844 C 203.390625 250.765625 214.019531 250.792969 223.238281 250.808594 C 234.59375 249.625 238.628906 253.816406 240.382812 264.417969 C 239.953125 264.761719 239.683594 265.210938 239.25 265.519531 C 238.964844 265.554688 238.605469 265.351562 238.628906 265.644531 C 232.058594 273.109375 203.25 263.429688 195.839844 273.867188 C 199.195312 285.445312 217.664062 280.4375 226.652344 280.316406 C 234.804688 280.152344 246.054688 277.101562 246.910156 267.390625 C 255.339844 267.71875 263.308594 260.640625 269.914062 256.453125 C 276.335938 252.222656 289.199219 243.679688 295.582031 239.410156 C 297.605469 238 307.886719 230.945312 310.113281 229.425781 C 313.253906 226.800781 320.851562 221.433594 320.308594 229.484375 Z M 47.058594 187.242188 C 59.457031 237.402344 127.6875 246.148438 152.59375 201.03125 C 164.5625 210.554688 178.4375 219.855469 192.804688 225.253906 C 196.964844 227.207031 200.277344 233.105469 205.34375 229.980469 C 236.800781 212.871094 268.160156 194.207031 299.261719 176.425781 C 304.882812 174.214844 301.589844 160.578125 302.382812 156.296875 C 302.292969 128.828125 301.867188 98.695312 301.609375 71.324219 C 301.152344 64.175781 303.902344 59.367188 295.414062 55.808594 C 267.085938 38.777344 238.109375 21.34375 209.265625 5.105469 C 206.304688 3.539062 202.667969 0.664062 199.21875 3.03125 C 168.351562 21.433594 137.328125 40.066406 106.34375 58.234375 C 102.585938 60.582031 104.023438 63.621094 104.949219 66.824219 C 101.714844 81.859375 102.082031 98.191406 103.289062 113.539062 C 103.96875 114.308594 103.78125 115.117188 104.367188 115.855469 C 104.554688 117.316406 104.871094 118.894531 105.328125 120.1875 C 106.277344 120.601562 105.820312 121.15625 106.558594 121.496094 C 106.828125 121.585938 106.898438 121.679688 106.910156 121.792969 C 106.902344 122.011719 107.394531 122.003906 107.453125 122.125 C 106.8125 122.28125 105.554688 122.066406 105.242188 122.621094 C 105.632812 122.839844 106.292969 122.726562 106.589844 123.066406 C 106.230469 123.535156 105.351562 123.589844 106.414062 123.90625 C 105.390625 124.023438 104.289062 123.949219 103.351562 124.355469 C 164.890625 131.53125 163.898438 219.144531 99.972656 218.429688 C 40.960938 211.332031 47.804688 131.039062 103.351562 123.222656 C 68.128906 110.175781 37.457031 155.078125 47.058594 187.242188 Z M 200.714844 119.671875 C 200.699219 119.75 200.667969 119.820312 200.640625 119.902344 C 200.617188 119.730469 200.597656 119.558594 200.574219 119.386719 L 200.761719 119.476562 C 200.742188 119.539062 200.730469 119.601562 200.714844 119.671875 Z M 201.492188 120.03125 C 201.359375 119.894531 201.195312 119.789062 201.09375 119.640625 C 201.253906 119.722656 201.429688 119.796875 201.601562 119.851562 C 201.574219 119.917969 201.539062 119.980469 201.492188 120.03125 Z M 289.558594 71.238281 C 289.796875 102.699219 289.359375 135.628906 289.449219 167.105469 C 262.175781 183.460938 234.160156 199.0625 207.375 216.144531 C 206.828125 184.078125 207.289062 151.765625 202.339844 119.976562 C 212.542969 114.902344 221.410156 106.589844 231.128906 100.402344 C 230.875 120.167969 230.238281 141.023438 230.238281 160.824219 C 230.140625 165.6875 235.875 169.054688 240.0625 166.457031 C 248.265625 161.742188 256.476562 156.550781 264.695312 151.929688 C 269.023438 149.796875 267.734375 144.148438 267.890625 140.152344 C 267.671875 121.015625 268.210938 99.652344 267.371094 80.574219 C 275 78.144531 282.320312 74.691406 289.558594 71.238281 Z M 178.140625 29.925781 C 184.769531 26.09375 195.925781 19.703125 202.492188 15.765625 C 229.449219 30.988281 258.339844 48.695312 285.242188 63.964844 C 278.496094 68.4375 271.457031 72.351562 265.296875 77.636719 C 236.59375 60.746094 207.253906 44.582031 177.1875 30.484375 C 177.507812 30.296875 177.820312 30.109375 178.140625 29.925781 Z M 151.679688 45.4375 C 158.730469 41.222656 165.699219 36.921875 172.886719 32.949219 C 197.730469 54.222656 227.167969 69.394531 255.003906 86.324219 C 255.046875 104.472656 255.375 125.007812 255.714844 143.125 C 251.933594 145.414062 245.945312 148.984375 242.074219 151.199219 C 241.851562 137.972656 241.835938 119.636719 241.8125 106.355469 C 241.183594 103.011719 243.289062 94.445312 239.226562 92.597656 C 210.121094 76.265625 181.066406 59.199219 150.214844 46.289062 Z M 128.332031 58.785156 C 132.984375 56.210938 141.855469 51.199219 146.324219 48.546875 C 173.117188 65.152344 200.160156 82.179688 227.621094 98.003906 C 219.304688 102.582031 211.015625 107.148438 202.5625 111.585938 C 175.988281 94.707031 147.992188 79.199219 121.050781 62.8125 Z M 110.984375 122.09375 C 110.058594 122.078125 109.140625 122.027344 108.226562 122.070312 C 109.042969 121.765625 110.257812 121.566406 110.929688 120.847656 C 110.96875 121.285156 111.03125 121.707031 111.136719 122.101562 C 111.085938 122.101562 111.035156 122.09375 110.984375 122.09375 Z M 146.921875 139.160156 C 138.390625 128.441406 124.734375 122.652344 111.265625 122.109375 C 119.445312 108.179688 112.765625 86.941406 113.25 71.003906 C 141.757812 86.960938 170.371094 103.949219 199.429688 118.832031 C 197.082031 150.421875 197.054688 182.667969 196.734375 214.570312 C 189.761719 209.324219 181.496094 206.035156 173.699219 202.363281 C 167.835938 199.574219 162.152344 195.1875 155.535156 194.832031 C 162.851562 176.480469 159.578125 154.371094 146.921875 139.160156 Z M 133.679688 155.949219 C 134.023438 165.152344 103.054688 190.046875 94.574219 196.5 C 85.683594 202.316406 78.671875 182.792969 73.296875 178.027344 C 73.410156 176.519531 71.195312 175.695312 72.066406 173.90625 C 72.511719 173.796875 72.65625 174.050781 73.011719 174.140625 C 73.050781 173.554688 73.921875 173.914062 73.71875 173.089844 C 80.855469 174.410156 86.449219 179.863281 91.230469 185 C 100.078125 177.59375 121.746094 149.535156 133.679688 155.949219 Z M 133.679688 155.949219 " fill-opacity="1" fill-rule="nonzero"/></svg>