<svg xmlns="http://www.w3.org/2000/svg" xmlns:xlink="http://www.w3.org/1999/xlink" width="500" zoomAndPan="magnify" viewBox="0 0 375 374.999991" height="500" preserveAspectRatio="xMidYMid meet" version="1.0"><defs><clipPath id="d733280a1b"><path d="M 20 346 L 363 346 L 363 373.296875 L 20 373.296875 Z M 20 346 " clip-rule="nonzero"/></clipPath><clipPath id="b298093997"><path d="M 161 2.046875 L 321 2.046875 L 321 150 L 161 150 Z M 161 2.046875 " clip-rule="nonzero"/></clipPath><clipPath id="1e0c83de3c"><path d="M 260 2.046875 L 321 2.046875 L 321 63 L 260 63 Z M 260 2.046875 " clip-rule="nonzero"/></clipPath></defs><path fill="#ffffff" d="M 107.273438 282.539062 L 50.867188 282.539062 L 50.867188 354.140625 L 107.273438 354.140625 L 107.273438 282.539062 " fill-opacity="1" fill-rule="nonzero"/><path fill="#040505" d="M 107.273438 282.539062 L 107.273438 278.621094 L 50.867188 278.621094 C 49.832031 278.621094 48.816406 279.042969 48.09375 279.765625 C 47.359375 280.484375 46.9375 281.503906 46.9375 282.539062 L 46.9375 354.140625 C 46.9375 355.175781 47.359375 356.179688 48.09375 356.914062 C 48.816406 357.636719 49.832031 358.058594 50.867188 358.058594 L 107.273438 358.058594 C 108.308594 358.058594 109.324219 357.636719 110.042969 356.914062 C 110.78125 356.179688 111.1875 355.175781 111.1875 354.140625 L 111.1875 282.539062 C 111.1875 281.503906 110.78125 280.484375 110.042969 279.765625 C 109.324219 279.042969 108.308594 278.621094 107.273438 278.621094 L 107.273438 282.539062 L 103.363281 282.539062 L 103.363281 350.21875 L 54.761719 350.21875 L 54.761719 286.457031 L 107.273438 286.457031 L 107.273438 282.539062 L 103.363281 282.539062 L 107.273438 282.539062 " fill-opacity="1" fill-rule="nonzero"/><path fill="#ffffff" d="M 184.03125 244.097656 L 127.605469 244.097656 L 127.605469 354.140625 L 184.03125 354.140625 L 184.03125 244.097656 " fill-opacity="1" fill-rule="nonzero"/><path fill="#040505" d="M 184.03125 244.097656 L 184.03125 240.179688 L 127.605469 240.179688 C 126.574219 240.179688 125.554688 240.601562 124.835938 241.324219 C 124.101562 242.058594 123.691406 243.0625 123.691406 244.097656 L 123.691406 354.140625 C 123.691406 355.175781 124.101562 356.179688 124.835938 356.914062 C 125.554688 357.636719 126.574219 358.058594 127.605469 358.058594 L 184.03125 358.058594 C 185.0625 358.058594 186.066406 357.636719 186.800781 356.914062 C 187.519531 356.179688 187.941406 355.175781 187.941406 354.140625 L 187.941406 244.097656 C 187.941406 243.0625 187.519531 242.058594 186.800781 241.324219 C 186.066406 240.601562 185.0625 240.179688 184.03125 240.179688 L 184.03125 244.097656 L 180.117188 244.097656 L 180.117188 350.21875 L 131.519531 350.21875 L 131.519531 248.015625 L 184.03125 248.015625 L 184.03125 244.097656 L 180.117188 244.097656 L 184.03125 244.097656 " fill-opacity="1" fill-rule="nonzero"/><path fill="#ffffff" d="M 332.234375 142.410156 L 275.8125 142.410156 L 275.8125 354.140625 L 332.234375 354.140625 L 332.234375 142.410156 " fill-opacity="1" fill-rule="nonzero"/><path fill="#040505" d="M 332.234375 142.410156 L 332.234375 138.492188 L 275.8125 138.492188 C 274.777344 138.492188 273.777344 138.914062 273.042969 139.652344 C 272.320312 140.375 271.898438 141.390625 271.898438 142.410156 L 271.898438 354.140625 C 271.898438 355.175781 272.320312 356.179688 273.042969 356.914062 C 273.777344 357.636719 274.777344 358.058594 275.8125 358.058594 L 332.234375 358.058594 C 333.269531 358.058594 334.285156 357.636719 335.007812 356.914062 C 335.742188 356.179688 336.148438 355.175781 336.148438 354.140625 L 336.148438 142.410156 C 336.148438 141.390625 335.742188 140.375 335.007812 139.652344 C 334.285156 138.914062 333.269531 138.492188 332.234375 138.492188 L 332.234375 142.410156 L 328.324219 142.410156 L 328.324219 350.21875 L 279.726562 350.21875 L 279.726562 146.332031 L 332.234375 146.332031 L 332.234375 142.410156 L 328.324219 142.410156 L 332.234375 142.410156 " fill-opacity="1" fill-rule="nonzero"/><path fill="#ffffff" d="M 258.890625 187.578125 L 202.46875 187.578125 L 202.46875 354.140625 L 258.890625 354.140625 L 258.890625 187.578125 " fill-opacity="1" fill-rule="nonzero"/><path fill="#040505" d="M 258.890625 187.578125 L 258.890625 183.660156 L 202.46875 183.660156 C 201.433594 183.660156 200.433594 184.066406 199.699219 184.804688 C 198.960938 185.539062 198.554688 186.542969 198.554688 187.578125 L 198.554688 354.140625 C 198.554688 355.175781 198.960938 356.179688 199.699219 356.914062 C 200.433594 357.636719 201.433594 358.058594 202.46875 358.058594 L 258.890625 358.058594 C 259.910156 358.058594 260.925781 357.636719 261.648438 356.914062 C 262.382812 356.179688 262.804688 355.175781 262.804688 354.140625 L 262.804688 187.578125 C 262.804688 186.542969 262.382812 185.539062 261.648438 184.804688 C 260.925781 184.066406 259.910156 183.660156 258.890625 183.660156 L 258.890625 187.578125 L 254.980469 187.578125 L 254.980469 350.21875 L 206.382812 350.21875 L 206.382812 191.5 L 258.890625 191.5 L 258.890625 187.578125 L 254.980469 187.578125 L 258.890625 187.578125 " fill-opacity="1" fill-rule="nonzero"/><path fill="#ffffff" d="M 28.296875 369.347656 C 26.136719 369.347656 24.382812 367.605469 24.382812 365.429688 L 24.382812 354.140625 C 24.382812 351.960938 26.136719 350.21875 28.296875 350.21875 L 354.820312 350.21875 C 356.980469 350.21875 358.734375 351.960938 358.734375 354.140625 L 358.734375 365.429688 C 358.734375 367.605469 356.980469 369.347656 354.820312 369.347656 L 28.296875 369.347656 " fill-opacity="1" fill-rule="nonzero"/><g clip-path="url(#d733280a1b)"><path fill="#040505" d="M 354.820312 346.300781 L 28.296875 346.300781 C 23.960938 346.300781 20.46875 349.8125 20.46875 354.140625 L 20.46875 365.429688 C 20.46875 369.769531 23.960938 373.265625 28.296875 373.265625 L 354.820312 373.265625 C 359.140625 373.265625 362.648438 369.769531 362.648438 365.429688 L 362.648438 354.140625 C 362.648438 349.8125 359.140625 346.300781 354.820312 346.300781 Z M 354.820312 354.140625 L 354.820312 365.429688 L 28.296875 365.429688 L 28.296875 354.140625 L 354.820312 354.140625 " fill-opacity="1" fill-rule="nonzero"/></g><path fill="#ffffff" d="M 185.109375 131.1875 L 179.476562 124.617188 L 173.839844 118.0625 C 173.839844 118.0625 153.054688 114.582031 143.773438 126.246094 C 134.476562 137.910156 132.941406 164.6875 132.941406 164.6875 C 132.941406 164.6875 159.628906 167.183594 172.511719 159.734375 C 185.40625 152.289062 185.109375 131.1875 185.109375 131.1875 " fill-opacity="1" fill-rule="nonzero"/><path fill="#040505" d="M 185.109375 131.1875 L 188.085938 128.628906 L 182.449219 122.0625 L 176.816406 115.507812 C 176.203125 114.800781 175.390625 114.332031 174.484375 114.191406 C 174.324219 114.160156 171.257812 113.660156 166.84375 113.660156 C 163.136719 113.660156 158.488281 114.003906 153.777344 115.414062 C 151.425781 116.121094 149.0625 117.089844 146.824219 118.457031 C 144.589844 119.820312 142.476562 121.574219 140.707031 123.800781 C 137.96875 127.25 136.011719 131.46875 134.476562 135.875 C 132.160156 142.488281 130.832031 149.558594 130.046875 155.046875 C 129.265625 160.519531 129.046875 164.390625 129.03125 164.46875 C 128.90625 166.570312 130.484375 168.40625 132.582031 168.59375 C 132.660156 168.609375 137.042969 169.015625 143.179688 169.015625 C 147.78125 169.015625 153.335938 168.78125 158.863281 167.964844 C 164.402344 167.136719 169.898438 165.753906 174.46875 163.136719 C 178.222656 160.957031 180.992188 157.871094 183.011719 154.59375 C 186.035156 149.640625 187.472656 144.230469 188.226562 139.839844 C 188.976562 135.464844 189.023438 132.109375 189.023438 131.296875 L 189.023438 131.25 L 186.816406 131.21875 L 189.023438 131.25 L 186.816406 131.21875 L 189.023438 131.25 C 189.039062 130.277344 188.710938 129.367188 188.082031 128.628906 L 185.109375 131.1875 L 181.195312 131.109375 L 181.195312 131.296875 C 181.195312 131.953125 181.117188 137.019531 179.648438 142.488281 C 178.910156 145.21875 177.847656 148.039062 176.34375 150.484375 C 174.84375 152.929688 172.964844 154.953125 170.554688 156.332031 C 167.390625 158.183594 162.695312 159.484375 157.71875 160.222656 C 152.742188 160.957031 147.5 161.175781 143.179688 161.175781 C 140.285156 161.175781 137.796875 161.082031 136.042969 160.972656 C 135.164062 160.925781 134.476562 160.878906 133.992188 160.847656 C 133.757812 160.832031 133.585938 160.816406 133.460938 160.800781 L 133.335938 160.800781 L 133.304688 160.785156 L 132.941406 164.6875 L 136.855469 164.925781 L 136.855469 164.863281 C 136.886719 164.1875 137.339844 157.539062 138.859375 149.828125 C 139.609375 145.96875 140.644531 141.847656 141.988281 138.101562 C 143.304688 134.351562 144.980469 130.996094 146.828125 128.691406 C 147.96875 127.265625 149.332031 126.105469 150.894531 125.148438 C 153.226562 123.738281 156 122.796875 158.800781 122.234375 C 161.617188 121.667969 164.449219 121.496094 166.84375 121.496094 C 168.738281 121.496094 170.367188 121.605469 171.507812 121.714844 C 172.074219 121.78125 172.511719 121.828125 172.808594 121.859375 C 172.949219 121.890625 173.058594 121.90625 173.121094 121.90625 L 173.199219 121.921875 L 173.214844 121.921875 L 173.449219 120.414062 L 173.199219 121.921875 L 173.214844 121.921875 L 173.449219 120.414062 L 173.199219 121.921875 L 173.839844 118.0625 L 170.882812 120.601562 L 176.5 127.171875 L 182.136719 133.742188 L 185.109375 131.1875 L 181.195312 131.109375 L 185.109375 131.1875 " fill-opacity="1" fill-rule="nonzero"/><path fill="#ffffff" d="M 186.238281 145.578125 C 185.1875 145.5 184.234375 145.015625 183.546875 144.230469 L 160.726562 117.640625 C 159.316406 116.011719 159.503906 113.53125 161.148438 112.121094 L 169.882812 104.597656 C 170.601562 103.96875 171.507812 103.640625 172.433594 103.640625 L 172.730469 103.65625 C 173.761719 103.734375 174.71875 104.21875 175.40625 105.003906 L 198.226562 131.59375 C 199.636719 133.238281 199.445312 135.71875 197.804688 137.128906 L 189.070312 144.652344 C 188.367188 145.265625 187.457031 145.59375 186.519531 145.59375 L 186.238281 145.578125 " fill-opacity="1" fill-rule="nonzero"/><path fill="#040505" d="M 172.433594 99.71875 C 170.570312 99.71875 168.753906 100.394531 167.328125 101.617188 L 158.597656 109.144531 C 155.324219 111.964844 154.949219 116.917969 157.765625 120.195312 L 180.585938 146.785156 C 181.949219 148.351562 183.859375 149.324219 185.925781 149.496094 C 186.128906 149.496094 186.316406 149.511719 186.519531 149.511719 C 188.382812 149.511719 190.195312 148.855469 191.621094 147.617188 L 200.355469 140.089844 C 203.625 137.269531 204 132.332031 201.183594 129.039062 L 178.363281 102.449219 C 177.019531 100.863281 175.09375 99.894531 173.011719 99.753906 C 172.824219 99.738281 172.621094 99.71875 172.433594 99.71875 Z M 172.433594 107.558594 L 195.253906 134.148438 L 186.519531 141.675781 L 163.699219 115.085938 L 172.433594 107.558594 " fill-opacity="1" fill-rule="nonzero"/><path fill="#ffffff" d="M 211.8125 146.03125 C 210.699219 146.03125 209.605469 145.5625 208.839844 144.667969 L 165.953125 94.6875 C 164.652344 93.199219 164.683594 90.957031 166.03125 89.5 C 169.144531 86.082031 243.003906 5.992188 297.019531 5.992188 C 302.84375 5.992188 308.304688 6.925781 313.265625 8.785156 C 314.519531 9.253906 315.441406 10.332031 315.722656 11.644531 C 327.570312 68.269531 218.636719 142.238281 213.988281 145.375 C 213.316406 145.8125 212.5625 146.03125 211.8125 146.03125 " fill-opacity="1" fill-rule="nonzero"/><g clip-path="url(#b298093997)"><path fill="#040505" d="M 297.019531 2.070312 C 241.300781 2.070312 166.3125 83.382812 163.136719 86.847656 C 160.457031 89.765625 160.394531 94.234375 162.980469 97.257812 L 205.878906 147.222656 C 207.414062 149.011719 209.605469 149.953125 211.8125 149.953125 C 213.316406 149.953125 214.832031 149.527344 216.164062 148.621094 C 217.320312 147.851562 244.929688 129.195312 271.570312 103.4375 C 308.742188 67.488281 324.894531 36.335938 319.558594 10.847656 C 318.996094 8.214844 317.148438 6.050781 314.628906 5.109375 C 309.242188 3.09375 303.3125 2.070312 297.019531 2.070312 Z M 297.019531 9.910156 C 302.214844 9.910156 307.222656 10.707031 311.890625 12.457031 C 323.332031 67.140625 211.8125 142.113281 211.8125 142.113281 L 190.371094 117.136719 L 168.910156 92.132812 C 168.910156 92.132812 244.117188 9.910156 297.019531 9.910156 " fill-opacity="1" fill-rule="nonzero"/></g><path fill="#ffffff" d="M 301.558594 58.894531 C 300.792969 58.894531 300.039062 58.675781 299.398438 58.253906 C 292.402344 53.628906 285.5 47.449219 279.441406 40.394531 C 273.402344 33.339844 268.347656 25.597656 264.824219 17.976562 C 264.371094 17.003906 264.339844 15.875 264.730469 14.886719 C 265.121094 13.886719 265.902344 13.101562 266.90625 12.691406 C 277.894531 8.242188 288.035156 5.996094 297.035156 5.996094 C 302.859375 5.996094 308.320312 6.933594 313.265625 8.785156 C 314.519531 9.253906 315.441406 10.332031 315.722656 11.644531 C 318.492188 24.890625 314.863281 40.144531 304.90625 56.96875 C 304.375 57.890625 303.46875 58.566406 302.433594 58.800781 C 302.136719 58.863281 301.839844 58.894531 301.558594 58.894531 " fill-opacity="1" fill-rule="nonzero"/><g clip-path="url(#1e0c83de3c)"><path fill="#040505" d="M 297.035156 2.078125 C 287.519531 2.078125 276.890625 4.421875 265.433594 9.058594 C 263.445312 9.867188 261.882812 11.453125 261.082031 13.445312 C 260.300781 15.4375 260.363281 17.664062 261.269531 19.621094 C 264.933594 27.570312 270.191406 35.628906 276.484375 42.953125 C 282.777344 50.273438 289.945312 56.699219 297.238281 61.53125 C 298.539062 62.375 300.039062 62.816406 301.558594 62.816406 C 302.136719 62.816406 302.734375 62.753906 303.3125 62.628906 C 305.394531 62.140625 307.195312 60.824219 308.289062 58.972656 C 318.746094 41.273438 322.53125 25.078125 319.558594 10.847656 C 318.996094 8.214844 317.148438 6.050781 314.628906 5.109375 C 309.242188 3.09375 303.3125 2.078125 297.035156 2.078125 Z M 297.035156 9.917969 C 302.230469 9.917969 307.226562 10.714844 311.890625 12.457031 C 314.707031 25.878906 310.089844 40.519531 301.558594 54.976562 C 295.046875 50.679688 288.457031 44.894531 282.417969 37.839844 C 276.375 30.800781 271.632812 23.402344 268.363281 16.332031 C 278.253906 12.332031 287.972656 9.917969 297.035156 9.917969 " fill-opacity="1" fill-rule="nonzero"/></g><path fill="#ffffff" d="M 205.019531 149.605469 L 160.488281 97.730469 L 170.914062 88.761719 L 215.441406 140.65625 L 205.019531 149.605469 " fill-opacity="1" fill-rule="nonzero"/><path fill="#040505" d="M 205.019531 149.605469 L 207.992188 147.066406 L 166 98.152344 L 170.492188 94.296875 L 209.917969 140.230469 L 202.46875 146.644531 L 205.019531 149.605469 L 207.992188 147.066406 L 205.019531 149.605469 L 207.570312 152.585938 L 217.980469 143.617188 C 218.777344 142.929688 219.261719 141.988281 219.339844 140.9375 C 219.417969 139.886719 219.089844 138.882812 218.402344 138.085938 L 173.871094 86.207031 C 172.464844 84.574219 169.992188 84.371094 168.347656 85.796875 L 157.9375 94.765625 C 156.296875 96.175781 156.109375 98.65625 157.53125 100.285156 L 202.0625 152.164062 C 203.46875 153.808594 205.941406 153.996094 207.570312 152.585938 L 205.019531 149.605469 " fill-opacity="1" fill-rule="nonzero"/><path fill="#ffffff" d="M 266.71875 65.589844 C 261.617188 69.980469 253.914062 69.398438 249.53125 64.289062 C 245.148438 59.179688 245.730469 51.464844 250.832031 47.074219 C 255.933594 42.683594 263.617188 43.25 268.015625 48.375 C 272.398438 53.488281 271.820312 61.199219 266.71875 65.589844 " fill-opacity="1" fill-rule="nonzero"/><path fill="#040505" d="M 266.71875 65.589844 L 264.167969 62.613281 C 262.585938 63.960938 260.691406 64.617188 258.78125 64.617188 C 256.433594 64.617188 254.132812 63.644531 252.507812 61.734375 C 251.144531 60.148438 250.503906 58.253906 250.488281 56.339844 C 250.503906 53.988281 251.472656 51.699219 253.367188 50.054688 C 254.949219 48.691406 256.84375 48.046875 258.765625 48.046875 C 261.113281 48.046875 263.398438 49.019531 265.042969 50.929688 C 266.390625 52.5 267.03125 54.394531 267.03125 56.324219 C 267.03125 58.675781 266.078125 60.964844 264.167969 62.609375 L 269.269531 68.554688 C 272.964844 65.371094 274.871094 60.839844 274.855469 56.324219 C 274.871094 52.609375 273.574219 48.847656 270.976562 45.820312 C 267.796875 42.121094 263.273438 40.207031 258.765625 40.207031 C 255.058594 40.207031 251.300781 41.492188 248.28125 44.097656 C 244.570312 47.277344 242.660156 51.808594 242.660156 56.339844 C 242.660156 60.054688 243.960938 63.820312 246.558594 66.84375 C 249.734375 70.542969 254.257812 72.457031 258.78125 72.457031 C 262.476562 72.457031 266.234375 71.171875 269.269531 68.554688 L 266.71875 65.589844 " fill-opacity="1" fill-rule="nonzero"/><path fill="#ffffff" d="M 213.503906 55.335938 L 187.628906 77.613281 C 187.628906 77.613281 171.523438 70.417969 147.8125 89.089844 L 143.757812 84.371094 C 143.757812 84.371094 179.914062 29.8125 213.503906 55.335938 " fill-opacity="1" fill-rule="nonzero"/><path fill="#040505" d="M 213.503906 55.335938 L 210.949219 52.359375 L 185.078125 74.636719 L 187.628906 77.613281 L 189.226562 74.039062 C 188.835938 73.867188 185.234375 72.332031 179.164062 72.332031 C 175.234375 72.332031 170.273438 72.988281 164.558594 75.027344 C 158.847656 77.066406 152.382812 80.5 145.386719 86.003906 L 147.8125 89.089844 L 150.769531 86.535156 L 146.730469 81.816406 L 143.757812 84.371094 L 147.03125 86.535156 C 147.296875 86.128906 153.210938 77.363281 162.132812 68.867188 C 166.59375 64.632812 171.789062 60.464844 177.316406 57.421875 C 182.839844 54.363281 188.648438 52.453125 194.390625 52.46875 C 199.871094 52.484375 205.363281 54.097656 211.140625 58.457031 L 213.503906 55.335938 L 210.949219 52.359375 L 213.503906 55.335938 L 215.867188 52.21875 C 208.902344 46.902344 201.496094 44.597656 194.390625 44.628906 C 186.785156 44.628906 179.632812 47.136719 173.230469 50.710938 C 163.621094 56.105469 155.542969 63.945312 149.769531 70.433594 C 144.007812 76.925781 140.566406 82.097656 140.503906 82.207031 C 139.53125 83.667969 139.65625 85.59375 140.785156 86.925781 L 144.839844 91.648438 C 146.199219 93.230469 148.578125 93.464844 150.222656 92.164062 C 156.625 87.132812 162.320312 84.152344 167.1875 82.414062 C 172.058594 80.671875 176.09375 80.171875 179.164062 80.171875 C 181.542969 80.171875 183.355469 80.46875 184.53125 80.75 C 185.109375 80.890625 185.53125 81.015625 185.796875 81.109375 L 186.050781 81.207031 L 186.082031 81.222656 L 186.878906 79.308594 L 186.035156 81.191406 L 186.082031 81.222656 L 186.878906 79.308594 L 186.035156 81.191406 C 187.410156 81.816406 189.039062 81.582031 190.179688 80.59375 L 216.054688 58.300781 C 216.945312 57.53125 217.445312 56.402344 217.414062 55.210938 C 217.367188 54.019531 216.820312 52.921875 215.867188 52.21875 L 213.503906 55.335938 " fill-opacity="1" fill-rule="nonzero"/><path fill="#ffffff" d="M 256.324219 101.820312 L 230.453125 124.101562 C 230.453125 124.101562 235.148438 141.140625 213.171875 161.820312 L 217.210938 166.539062 C 217.210938 166.539062 276.484375 138.914062 256.324219 101.820312 " fill-opacity="1" fill-rule="nonzero"/><path fill="#040505" d="M 256.324219 101.820312 L 253.773438 98.859375 L 227.902344 121.136719 C 226.757812 122.125 226.289062 123.691406 226.679688 125.148438 L 229.214844 124.445312 L 226.679688 125.117188 L 226.679688 125.148438 L 229.214844 124.445312 L 226.679688 125.117188 L 226.914062 125.054688 L 226.679688 125.101562 L 226.679688 125.117188 L 226.914062 125.054688 L 226.679688 125.101562 C 226.695312 125.164062 226.960938 126.308594 226.960938 128.316406 C 226.960938 130.996094 226.476562 135.183594 224.207031 140.4375 C 221.921875 145.6875 217.851562 152.054688 210.480469 158.96875 C 208.964844 160.410156 208.839844 162.792969 210.199219 164.390625 L 214.238281 169.09375 C 215.378906 170.425781 217.273438 170.835938 218.855469 170.097656 C 219.027344 170.019531 230.0625 164.878906 241.300781 155.878906 C 246.917969 151.378906 252.601562 145.90625 256.984375 139.480469 C 261.332031 133.066406 264.417969 125.589844 264.417969 117.328125 C 264.433594 111.730469 262.976562 105.851562 259.769531 99.957031 C 259.207031 98.90625 258.203125 98.183594 257.03125 97.980469 C 255.871094 97.761719 254.683594 98.074219 253.773438 98.859375 L 256.324219 101.820312 L 252.898438 103.703125 C 255.527344 108.578125 256.589844 113.078125 256.589844 117.328125 C 256.589844 123.597656 254.257812 129.523438 250.503906 135.058594 C 244.898438 143.351562 236.117188 150.453125 228.746094 155.359375 C 225.054688 157.824219 221.734375 159.75 219.339844 161.035156 C 218.152344 161.695312 217.179688 162.179688 216.539062 162.511719 C 216.195312 162.683594 215.945312 162.792969 215.789062 162.886719 L 215.617188 162.964844 L 215.570312 162.980469 L 215.550781 162.996094 L 217.210938 166.539062 L 220.171875 163.984375 L 216.132812 159.265625 L 213.171875 161.820312 L 215.851562 164.6875 C 223.894531 157.117188 228.667969 149.859375 231.390625 143.554688 C 234.117188 137.269531 234.789062 131.9375 234.789062 128.316406 C 234.789062 125.226562 234.304688 123.347656 234.226562 123.066406 L 230.453125 124.097656 L 233.003906 127.078125 L 258.875 104.800781 L 256.324219 101.820312 L 252.898438 103.703125 L 256.324219 101.820312 " fill-opacity="1" fill-rule="nonzero"/><path fill="#040505" d="M 116.773438 153.542969 L 6.382812 258.347656 C 4.921875 259.742188 4.757812 262.015625 6.007812 263.617188 C 7.246094 265.199219 9.5 265.589844 11.1875 264.496094 L 135.054688 184.914062 C 136.871094 183.738281 137.402344 181.324219 136.230469 179.488281 C 135.070312 177.671875 132.644531 177.136719 130.832031 178.3125 L 41.851562 235.472656 L 122.160156 159.234375 C 123.738281 157.742188 123.800781 155.265625 122.316406 153.699219 C 120.828125 152.132812 118.339844 152.054688 116.773438 153.542969 " fill-opacity="1" fill-rule="nonzero"/></svg>