<svg xmlns="http://www.w3.org/2000/svg" xmlns:xlink="http://www.w3.org/1999/xlink" width="500" zoomAndPan="magnify" viewBox="0 0 375 374.999991" height="500" preserveAspectRatio="xMidYMid meet" version="1.0"><defs><clipPath id="09c5730faf"><path d="M 2.398438 37.5 L 372.898438 37.5 L 372.898438 339 L 2.398438 339 Z M 2.398438 37.5 " clip-rule="nonzero"/></clipPath></defs><g clip-path="url(#09c5730faf)"><path fill="#000000" d="M 372.820312 117.050781 C 372.816406 110.722656 370.324219 105.144531 365.613281 100.917969 L 309.296875 50.371094 C 302.292969 44.085938 293.460938 37.664062 281.042969 37.664062 C 281.039062 37.664062 281.035156 37.664062 281.03125 37.664062 C 268.605469 37.667969 259.773438 44.101562 252.773438 50.394531 L 196.492188 100.976562 C 191.785156 105.207031 189.296875 110.789062 189.296875 117.113281 L 189.324219 182.035156 L 151.949219 182.035156 C 158.710938 168.007812 163.425781 145.851562 158.132812 129.257812 C 154.410156 117.582031 146.207031 109.882812 134.417969 106.996094 C 132.914062 106.628906 131.324219 106.878906 130.003906 107.6875 C 128.683594 108.5 127.746094 109.804688 127.398438 111.3125 C 126.753906 114.097656 126.160156 116.707031 125.605469 119.160156 C 118.648438 149.734375 117.757812 153.664062 98.550781 166.195312 C 84.984375 175.050781 84.019531 176.195312 75.582031 188.484375 C 74.71875 189.742188 73.769531 191.125 72.703125 192.664062 C 69.285156 197.597656 64.914062 199.824219 58.5625 199.878906 L 58.074219 199.878906 L 58.074219 198.496094 C 58.074219 191.296875 52.207031 185.441406 44.996094 185.441406 L 15.472656 185.441406 C 8.265625 185.441406 2.398438 191.296875 2.398438 198.496094 L 2.398438 325.851562 C 2.398438 333.050781 8.265625 338.910156 15.472656 338.910156 L 44.996094 338.910156 C 52.207031 338.910156 58.074219 333.050781 58.074219 325.851562 L 58.074219 319.925781 C 60.683594 320.835938 63.292969 321.804688 65.976562 322.808594 C 79.128906 327.710938 94.035156 333.269531 116.167969 333.269531 L 193.015625 333.269531 C 196.292969 333.269531 199.410156 332.589844 202.238281 331.363281 C 205.015625 332.609375 208.027344 333.269531 211.113281 333.269531 C 211.117188 333.269531 211.117188 333.269531 211.117188 333.269531 L 351.171875 333.222656 C 363.15625 333.21875 372.902344 323.476562 372.898438 311.511719 Z M 46.496094 325.851562 C 46.496094 326.664062 45.808594 327.347656 44.996094 327.347656 L 15.472656 327.347656 C 14.664062 327.347656 13.976562 326.664062 13.976562 325.851562 L 13.976562 198.496094 C 13.976562 197.683594 14.664062 197 15.472656 197 L 44.996094 197 C 45.808594 197 46.496094 197.683594 46.496094 198.496094 Z M 116.167969 321.710938 C 96.128906 321.710938 82.859375 316.761719 70.03125 311.976562 C 66.15625 310.53125 62.183594 309.050781 58.074219 307.730469 L 58.074219 211.441406 L 58.632812 211.441406 C 68.746094 211.351562 76.683594 207.246094 82.230469 199.234375 C 83.304688 197.683594 84.261719 196.289062 85.132812 195.023438 C 92.914062 183.6875 92.914062 183.6875 104.886719 175.871094 C 128.011719 160.78125 129.714844 153.28125 136.894531 121.71875 C 137 121.25 137.109375 120.777344 137.21875 120.296875 C 141.988281 122.824219 145.246094 126.945312 147.101562 132.765625 C 152.5625 149.894531 143.949219 176.261719 137.210938 184.03125 C 135.726562 185.738281 135.378906 188.15625 136.320312 190.214844 C 137.261719 192.273438 139.320312 193.59375 141.585938 193.59375 L 207.769531 193.59375 C 214.21875 193.59375 219.46875 198.832031 219.46875 205.273438 C 219.46875 211.714844 214.21875 216.953125 207.769531 216.953125 L 162.140625 216.953125 C 158.945312 216.953125 156.351562 219.542969 156.351562 222.734375 C 156.351562 225.925781 158.945312 228.515625 162.140625 228.515625 L 217.332031 228.515625 C 223.78125 228.515625 229.03125 233.753906 229.03125 240.191406 C 229.03125 246.632812 223.78125 251.871094 217.332031 251.871094 L 162.140625 251.871094 C 158.945312 251.871094 156.351562 254.460938 156.351562 257.652344 C 156.351562 260.84375 158.945312 263.433594 162.140625 263.433594 L 211.324219 263.433594 C 217.773438 263.433594 223.019531 268.671875 223.019531 275.113281 C 223.019531 281.550781 217.773438 286.792969 211.324219 286.792969 L 162.140625 286.792969 C 158.945312 286.792969 156.351562 289.378906 156.351562 292.570312 C 156.351562 295.761719 158.945312 298.351562 162.140625 298.351562 L 193.015625 298.351562 C 199.464844 298.351562 204.714844 303.589844 204.714844 310.03125 C 204.714844 316.472656 199.464844 321.710938 193.015625 321.710938 Z M 351.167969 321.660156 L 213.125 321.710938 C 215.132812 318.277344 216.289062 314.285156 216.289062 310.03125 C 216.289062 305.75 215.125 301.734375 213.09375 298.285156 C 225.101562 297.378906 234.597656 287.332031 234.597656 275.113281 C 234.597656 269.441406 232.554688 264.238281 229.164062 260.203125 C 236.007812 256.152344 240.609375 248.699219 240.609375 240.191406 C 240.609375 230.675781 234.847656 222.476562 226.625 218.886719 C 229.40625 215.058594 231.046875 210.355469 231.046875 205.273438 C 231.046875 192.460938 220.605469 182.035156 207.769531 182.035156 L 200.902344 182.035156 L 200.878906 117.109375 C 200.875 114.070312 201.976562 111.605469 204.238281 109.570312 L 260.519531 58.984375 C 268.230469 52.054688 274.175781 49.226562 281.035156 49.222656 C 281.039062 49.222656 281.042969 49.222656 281.046875 49.222656 C 287.902344 49.222656 293.847656 52.046875 301.558594 58.96875 L 357.875 109.515625 C 360.140625 111.546875 361.242188 114.015625 361.242188 117.054688 L 361.320312 311.515625 C 361.320312 317.109375 356.765625 321.660156 351.167969 321.660156 Z M 315.8125 243.4375 C 316.660156 250.414062 314.789062 256.78125 310.398438 261.851562 C 305.234375 267.8125 296.652344 271.808594 286.886719 272.929688 L 286.886719 280.28125 C 286.886719 283.472656 284.296875 286.0625 281.097656 286.0625 C 277.902344 286.0625 275.308594 283.472656 275.308594 280.28125 L 275.308594 272.84375 C 260.847656 270.859375 249.609375 261.730469 246.351562 248.699219 C 245.578125 245.601562 247.46875 242.464844 250.570312 241.691406 C 253.675781 240.921875 256.8125 242.804688 257.585938 245.902344 C 260.585938 257.910156 272.6875 261.914062 282.144531 261.679688 C 290.265625 261.488281 297.917969 258.585938 301.640625 254.289062 C 303.898438 251.679688 304.777344 248.585938 304.320312 244.832031 C 303.238281 235.945312 295.8125 230.84375 280.242188 228.289062 C 255.464844 224.226562 249.695312 211.679688 249.21875 201.867188 C 248.554688 188.273438 258.085938 176.878906 272.9375 173.515625 C 273.714844 173.34375 274.507812 173.191406 275.3125 173.0625 L 275.3125 165.546875 C 275.3125 162.351562 277.902344 159.765625 281.101562 159.765625 C 284.296875 159.765625 286.890625 162.351562 286.890625 165.546875 L 286.890625 173.015625 C 297.488281 174.582031 307.945312 180.710938 313.167969 193.136719 C 314.40625 196.078125 313.019531 199.46875 310.070312 200.703125 C 307.121094 201.941406 303.730469 200.554688 302.492188 197.609375 C 297.472656 185.671875 285.316406 182.570312 275.496094 184.792969 C 268.078125 186.472656 260.316406 191.695312 260.78125 201.308594 C 260.929688 204.320312 261.375 213.484375 282.121094 216.882812 C 289.808594 218.144531 313.203125 221.980469 315.8125 243.4375 Z M 281.050781 115.171875 C 292.417969 115.171875 301.667969 105.9375 301.667969 94.585938 C 301.667969 83.234375 292.417969 74 281.050781 74 C 269.683594 74 260.433594 83.234375 260.433594 94.585938 C 260.433594 105.9375 269.683594 115.171875 281.050781 115.171875 Z M 281.050781 85.5625 C 286.035156 85.5625 290.089844 89.609375 290.089844 94.585938 C 290.089844 99.5625 286.035156 103.609375 281.050781 103.609375 C 276.066406 103.609375 272.011719 99.5625 272.011719 94.585938 C 272.011719 89.609375 276.066406 85.5625 281.050781 85.5625 Z M 281.050781 85.5625 " fill-opacity="1" fill-rule="nonzero"/></g></svg>