<svg xmlns="http://www.w3.org/2000/svg" xmlns:xlink="http://www.w3.org/1999/xlink" width="500" zoomAndPan="magnify" viewBox="0 0 375 374.999991" height="500" preserveAspectRatio="xMidYMid meet" version="1.0"><path fill="#000000" d="M 317.894531 116.050781 C 329.894531 137.871094 336.207031 162.371094 336.207031 187.5 C 336.207031 189.824219 336.03125 192.171875 335.929688 194.519531 C 338.125 194.191406 340.375 193.964844 342.671875 193.964844 C 344.769531 193.964844 346.839844 194.167969 348.859375 194.445312 C 348.960938 192.121094 349.136719 189.796875 349.136719 187.5 C 349.136719 158.027344 341.105469 129.386719 325.976562 104.28125 C 324.109375 107.617188 322.011719 110.824219 319.613281 113.855469 L 317.894531 116.050781 " fill-opacity="1" fill-rule="nonzero"/><path fill="#000000" d="M 125.242188 52.457031 C 144.1875 43.691406 164.417969 39.121094 185.53125 38.84375 C 187.121094 34.375 189.089844 30.054688 191.441406 25.988281 C 166.386719 25.40625 140.929688 30.761719 118.222656 41.519531 C 121.050781 44.804688 123.425781 48.464844 125.242188 52.457031 " fill-opacity="1" fill-rule="nonzero"/><path fill="#000000" d="M 58.871094 112.945312 L 50.511719 101.855469 C 35.585938 125.699219 27.199219 152.847656 26.089844 181.035156 L 39.019531 181.035156 C 40.054688 156.941406 46.800781 133.679688 58.871094 112.945312 " fill-opacity="1" fill-rule="nonzero"/><path fill="#000000" d="M 289.15625 295.972656 L 292.691406 310.09375 C 302.339844 301.808594 310.925781 292.488281 318.351562 282.234375 L 310.191406 271.351562 C 304.082031 280.289062 297.058594 288.550781 289.15625 295.972656 " fill-opacity="1" fill-rule="nonzero"/><path fill="#000000" d="M 181.035156 193.964844 L 129.308594 193.964844 L 129.308594 243.214844 L 96.984375 227.050781 L 64.65625 243.214844 L 64.65625 193.964844 L 12.929688 193.964844 L 12.929688 323.277344 L 30.28125 323.277344 C 37.582031 308.019531 53.113281 297.414062 71.121094 297.414062 C 89.128906 297.414062 104.660156 308.019531 111.960938 323.277344 L 181.035156 323.277344 L 181.035156 193.964844 " fill-opacity="1" fill-rule="nonzero"/><path fill="#000000" d="M 115.847656 336.207031 C 116.175781 338.328125 116.378906 340.476562 116.378906 342.671875 C 116.378906 344.871094 116.175781 347.015625 115.847656 349.136719 L 181.566406 349.136719 C 181.238281 347.015625 181.035156 344.871094 181.035156 342.671875 C 181.035156 340.476562 181.238281 338.328125 181.566406 336.207031 L 115.847656 336.207031 " fill-opacity="1" fill-rule="nonzero"/><path fill="#000000" d="M 272.964844 284.484375 L 232.757812 284.484375 C 225.636719 284.484375 219.828125 278.675781 219.828125 271.550781 L 219.828125 258.621094 C 219.828125 251.5 225.636719 245.691406 232.757812 245.691406 L 263.269531 245.691406 L 261.273438 237.660156 C 260.539062 234.777344 257.964844 232.757812 254.984375 232.757812 L 193.964844 232.757812 L 193.964844 311.050781 C 202.199219 302.640625 213.640625 297.414062 226.292969 297.414062 C 244.300781 297.414062 259.832031 308.019531 267.132812 323.277344 L 282.664062 323.277344 L 272.964844 284.484375 " fill-opacity="1" fill-rule="nonzero"/><path fill="#000000" d="M 0 336.207031 L 0 349.136719 L 26.390625 349.136719 C 26.0625 347.015625 25.863281 344.871094 25.863281 342.671875 C 25.863281 340.476562 26.0625 338.328125 26.390625 336.207031 L 0 336.207031 " fill-opacity="1" fill-rule="nonzero"/><path fill="#000000" d="M 71.121094 355.601562 C 63.972656 355.601562 58.191406 349.820312 58.191406 342.671875 C 58.191406 335.523438 63.972656 329.742188 71.121094 329.742188 C 78.269531 329.742188 84.050781 335.523438 84.050781 342.671875 C 84.050781 349.820312 78.269531 355.601562 71.121094 355.601562 Z M 71.121094 310.34375 C 53.289062 310.34375 38.792969 324.839844 38.792969 342.671875 C 38.792969 360.503906 53.289062 375 71.121094 375 C 88.953125 375 103.449219 360.503906 103.449219 342.671875 C 103.449219 324.839844 88.953125 310.34375 71.121094 310.34375 " fill-opacity="1" fill-rule="nonzero"/><path fill="#000000" d="M 77.585938 222.300781 L 96.984375 212.605469 L 116.378906 222.300781 L 116.378906 193.964844 L 77.585938 193.964844 L 77.585938 222.300781 " fill-opacity="1" fill-rule="nonzero"/><path fill="#000000" d="M 226.292969 355.601562 C 219.144531 355.601562 213.363281 349.820312 213.363281 342.671875 C 213.363281 335.523438 219.144531 329.742188 226.292969 329.742188 C 233.441406 329.742188 239.222656 335.523438 239.222656 342.671875 C 239.222656 349.820312 233.441406 355.601562 226.292969 355.601562 Z M 226.292969 310.34375 C 208.460938 310.34375 193.964844 324.839844 193.964844 342.671875 C 193.964844 360.503906 208.460938 375 226.292969 375 C 244.125 375 258.621094 360.503906 258.621094 342.671875 C 258.621094 324.839844 244.125 310.34375 226.292969 310.34375 " fill-opacity="1" fill-rule="nonzero"/><path fill="#000000" d="M 232.757812 271.550781 L 269.734375 271.550781 L 266.5 258.621094 L 232.757812 258.621094 L 232.757812 271.550781 " fill-opacity="1" fill-rule="nonzero"/><path fill="#000000" d="M 271.550781 342.671875 C 271.550781 344.871094 271.351562 347.015625 271.019531 349.136719 L 284.484375 349.136719 L 284.484375 336.207031 L 271.019531 336.207031 C 271.351562 338.328125 271.550781 340.476562 271.550781 342.671875 " fill-opacity="1" fill-rule="nonzero"/><path fill="#000000" d="M 84.050781 58.191406 C 91.199219 58.191406 96.984375 63.972656 96.984375 71.121094 C 96.984375 78.269531 91.199219 84.050781 84.050781 84.050781 C 76.902344 84.050781 71.121094 78.269531 71.121094 71.121094 C 71.121094 63.972656 76.902344 58.191406 84.050781 58.191406 Z M 84.050781 124.992188 L 109.914062 90.515625 C 114.082031 84.960938 116.378906 78.066406 116.378906 71.121094 C 116.378906 53.289062 101.882812 38.792969 84.050781 38.792969 C 66.222656 38.792969 51.722656 53.289062 51.722656 71.121094 C 51.722656 78.066406 54.023438 84.960938 58.191406 90.515625 L 84.050781 124.992188 " fill-opacity="1" fill-rule="nonzero"/><path fill="#000000" d="M 342.671875 252.15625 C 335.523438 252.15625 329.742188 246.371094 329.742188 239.222656 C 329.742188 232.078125 335.523438 226.292969 342.671875 226.292969 C 349.820312 226.292969 355.601562 232.078125 355.601562 239.222656 C 355.601562 246.371094 349.820312 252.15625 342.671875 252.15625 Z M 342.671875 206.898438 C 324.839844 206.898438 310.34375 221.394531 310.34375 239.222656 C 310.34375 246.167969 312.644531 253.0625 316.808594 258.621094 L 342.671875 293.09375 L 368.535156 258.621094 C 372.703125 253.0625 375 246.167969 375 239.222656 C 375 221.394531 360.503906 206.898438 342.671875 206.898438 " fill-opacity="1" fill-rule="nonzero"/><path fill="#000000" d="M 258.621094 19.398438 C 283.625 19.398438 303.878906 39.652344 303.878906 64.65625 C 303.878906 89.660156 283.625 109.914062 258.621094 109.914062 C 233.617188 109.914062 213.363281 89.660156 213.363281 64.65625 C 213.363281 39.652344 233.617188 19.398438 258.621094 19.398438 Z M 258.621094 170.578125 L 309.460938 105.847656 C 318.375 94.53125 323.277344 80.339844 323.277344 65.917969 L 323.277344 64.65625 C 323.277344 28.992188 294.28125 0 258.621094 0 C 222.960938 0 193.964844 28.992188 193.964844 64.65625 L 193.964844 65.917969 C 193.964844 80.339844 198.863281 94.53125 207.78125 105.847656 L 258.621094 170.578125 " fill-opacity="1" fill-rule="nonzero"/><path fill="#000000" d="M 142.242188 155.171875 L 142.242188 168.101562 L 155.171875 168.101562 L 155.171875 155.171875 L 142.242188 155.171875 " fill-opacity="1" fill-rule="nonzero"/><path fill="#000000" d="M 181.035156 155.171875 L 168.101562 155.171875 L 168.101562 168.101562 L 181.035156 168.101562 L 181.035156 155.171875 " fill-opacity="1" fill-rule="nonzero"/><path fill="#000000" d="M 206.898438 155.171875 L 193.964844 155.171875 L 193.964844 168.101562 L 206.898438 168.101562 L 206.898438 155.171875 " fill-opacity="1" fill-rule="nonzero"/></svg>