<svg xmlns="http://www.w3.org/2000/svg" xmlns:xlink="http://www.w3.org/1999/xlink" width="500" zoomAndPan="magnify" viewBox="0 0 375 374.999991" height="500" preserveAspectRatio="xMidYMid meet" version="1.0"><path fill="#0d1216" d="M 306.738281 113.730469 C 302.226562 107.8125 295.3125 104.472656 287.871094 104.472656 L 109.21875 104.472656 L 102.890625 80.214844 C 100.957031 72.714844 94.160156 67.441406 86.367188 67.441406 L 69.082031 67.441406 C 65.800781 67.441406 63.222656 70.078125 63.222656 73.300781 C 63.222656 76.523438 65.800781 79.160156 69.082031 79.160156 L 86.367188 79.160156 C 88.828125 79.160156 90.9375 80.800781 91.582031 83.144531 L 98.964844 111.386719 C 98.964844 111.5625 99.023438 111.679688 99.082031 111.796875 L 130.839844 233.671875 L 128.027344 234.023438 C 118.359375 235.253906 111.035156 243.515625 111.035156 253.300781 C 111.035156 264.023438 119.765625 272.695312 130.488281 272.695312 L 154.21875 272.695312 C 152.226562 276.09375 151.113281 280.078125 151.113281 284.296875 C 151.113281 297.128906 161.601562 307.558594 174.433594 307.558594 C 187.265625 307.558594 197.695312 297.128906 197.695312 284.296875 C 197.695312 280.078125 196.582031 276.09375 194.589844 272.695312 L 231.621094 272.695312 C 229.628906 276.09375 228.515625 280.078125 228.515625 284.296875 C 228.515625 297.128906 238.945312 307.558594 251.777344 307.558594 C 264.609375 307.558594 275.097656 297.128906 275.097656 284.296875 C 275.097656 271.464844 264.609375 260.976562 251.777344 260.976562 L 130.488281 260.976562 C 126.210938 260.976562 122.753906 257.519531 122.753906 253.300781 C 122.753906 249.433594 125.683594 246.152344 129.492188 245.683594 L 261.503906 228.867188 C 278.320312 226.699219 292.265625 214.160156 296.132812 197.636719 L 310.957031 134.355469 C 312.832031 127.148438 311.308594 119.648438 306.738281 113.730469 Z M 251.777344 272.695312 C 258.164062 272.695312 263.378906 277.910156 263.378906 284.296875 C 263.378906 290.625 258.164062 295.839844 251.777344 295.839844 C 245.449219 295.839844 240.234375 290.625 240.234375 284.296875 C 240.234375 277.910156 245.449219 272.695312 251.777344 272.695312 Z M 174.433594 272.695312 C 180.761719 272.695312 185.976562 277.910156 185.976562 284.296875 C 185.976562 290.625 180.761719 295.839844 174.433594 295.839844 C 168.046875 295.839844 162.832031 290.625 162.832031 284.296875 C 162.832031 277.910156 168.046875 272.695312 174.433594 272.695312 Z M 235.253906 166.875 L 195.585938 188.320312 C 194.0625 189.140625 192.421875 189.550781 190.78125 189.550781 C 187.207031 189.550781 183.75 187.617188 181.875 184.277344 L 173.027344 168.046875 C 171.445312 165.175781 172.5 161.660156 175.371094 160.078125 C 178.183594 158.554688 181.757812 159.550781 183.28125 162.421875 L 191.425781 177.246094 L 229.6875 156.5625 C 232.5 155.039062 236.074219 156.09375 237.597656 158.90625 C 239.121094 161.777344 238.066406 165.351562 235.253906 166.875 Z M 235.253906 166.875 " fill-opacity="1" fill-rule="nonzero"/></svg>